<svg width="828" height="400" viewBox="0 0 828 400" fill="none" xmlns="http://www.w3.org/2000/svg">
<g id="banner">
<g id="base">
<rect width="827.93" height="400" rx="4" fill="url(#paint0_linear_2797_134)"/>
<rect x="0.5" y="0.5" width="826.93" height="399" rx="3.5" stroke="black" stroke-opacity="0.05" vector-effect="non-scaling-stroke"/>
</g>
<g id="next">
<mask id="mask0_2797_134" style="mask-type:alpha" maskUnits="userSpaceOnUse" x="504" y="125" width="150" height="150">
<g id="Group">
<path id="Vector" d="M578.926 274.4C620.181 274.4 653.626 240.956 653.626 199.7C653.626 158.444 620.181 125 578.926 125C537.67 125 504.226 158.444 504.226 199.7C504.226 240.956 537.67 274.4 578.926 274.4Z" fill="black"/>
</g>
</mask>
<g mask="url(#mask0_2797_134)">
<g id="Group_2">
<path id="Vector_2" d="M578.926 274.4C620.181 274.4 653.626 240.956 653.626 199.7C653.626 158.444 620.181 125 578.926 125C537.67 125 504.226 158.444 504.226 199.7C504.226 240.956 537.67 274.4 578.926 274.4Z" fill="black"/>
<path id="Vector_3" d="M628.318 255.74L561.614 169.818H549.046V229.553H559.1V182.587L620.425 261.82C623.192 259.968 625.828 257.935 628.318 255.74Z" fill="url(#paint1_linear_2797_134)"/>
<path id="Vector_4" d="M609.636 169.818H599.676V229.578H609.636V169.818Z" fill="url(#paint2_linear_2797_134)"/>
</g>
</g>
</g>
<g id="seomatic">
<path id="gr_104_" d="M326.595 228.206C326.595 233.906 322.558 240.905 317.618 243.755L268.244 272.262C263.307 275.113 255.228 275.113 250.291 272.262L200.914 243.755C195.976 240.905 191.938 233.908 191.938 228.206V171.193C191.938 165.492 195.977 158.494 200.914 155.644L250.29 127.138C255.228 124.287 263.307 124.287 268.244 127.138L317.618 155.645C322.558 158.494 326.595 165.492 326.595 171.194V228.206Z" fill="#F3BA48"/>
<g id="Group_3">
<path id="Vector_5" d="M273.831 192.626C275.228 195.04 274.385 198.187 271.947 199.596C269.53 200.992 266.382 200.146 264.987 197.733C263.581 195.294 264.411 192.124 266.824 190.729C269.263 189.321 272.422 190.187 273.831 192.626Z" fill="white"/>
<path id="Vector_6" d="M289.539 188.113C287.691 189.18 285.319 188.544 284.257 186.698C283.189 184.851 283.822 182.479 285.669 181.412L302.536 171.674C304.387 170.61 306.755 171.245 307.822 173.092C308.889 174.939 308.255 177.309 306.405 178.375L289.539 188.113Z" fill="white"/>
<path id="Vector_7" d="M276.411 167.504L226.506 196.317C222.421 198.675 221.024 203.895 223.379 207.98L235.385 228.774C237.745 232.857 242.964 234.256 247.049 231.899L296.954 203.086C301.035 200.727 302.437 195.506 300.077 191.423L288.071 170.63C285.716 166.546 280.493 165.147 276.411 167.504ZM246.227 219.178C243.343 220.841 241.058 220.566 240.254 220.349C239.904 220.256 239.783 220.206 239.783 219.79L239.762 217.351C239.775 216.96 240.221 216.762 240.442 216.783C240.554 216.777 242.83 217.031 244.293 216.184C245.181 215.672 245.502 214.746 245.052 213.971C244.515 213.042 243.33 212.78 241.476 213.05C239.137 213.398 235.886 213.294 234.347 210.634C233.08 208.439 233.51 205.239 236.924 203.266C239.229 201.934 241.68 202.086 242.626 202.191C242.981 202.191 243.168 202.616 243.168 202.823L243.023 205.184C243.01 205.518 242.726 205.946 242.439 205.907C242.172 205.91 239.85 205.625 238.499 206.406C237.699 206.868 237.411 207.745 237.753 208.343C238.228 209.165 239.249 209.399 241.413 209.099C243.539 208.787 247.07 208.552 248.808 211.568C250.129 213.85 249.483 217.295 246.227 219.178ZM256.741 195.905C256.87 196.126 256.803 196.428 256.561 196.567L250.421 200.112L252.009 202.863L257.061 199.944C257.282 199.817 257.599 199.903 257.728 200.124L259.12 202.537C259.262 202.783 259.166 203.076 258.945 203.203L253.889 206.122L255.619 209.115L261.76 205.569C262.001 205.428 262.293 205.526 262.421 205.747L263.819 208.165C263.943 208.386 263.881 208.688 263.639 208.827L254.46 214.126C254.218 214.267 253.922 214.169 253.797 213.947L245.322 199.272C245.197 199.051 245.26 198.747 245.502 198.607L254.681 193.309C254.922 193.167 255.218 193.265 255.343 193.486L256.741 195.905ZM273.994 203.146C269.558 205.705 264.001 204.215 261.442 199.783C258.882 195.35 260.34 189.745 264.776 187.185C269.212 184.626 274.819 186.147 277.379 190.581C279.938 195.014 278.425 200.586 273.994 203.146ZM290.23 190.64C287.166 192.408 283.252 191.361 281.485 188.297C279.712 185.233 280.764 181.319 283.827 179.552C286.887 177.784 290.805 178.831 292.573 181.895C294.34 184.958 293.29 188.872 290.23 190.64Z" fill="white"/>
<path id="Vector_8" d="M303.336 173.059C304.424 172.432 305.809 172.805 306.437 173.889C307.063 174.972 306.692 176.36 305.603 176.986L288.736 186.724C287.653 187.349 286.269 186.978 285.638 185.895C285.014 184.811 285.384 183.422 286.468 182.797L303.336 173.059ZM301.736 170.288L284.87 180.025C282.261 181.532 281.359 184.882 282.868 187.496C284.377 190.107 287.73 191.005 290.338 189.496L307.205 179.758C309.819 178.249 310.714 174.9 309.209 172.288C307.701 169.674 304.349 168.779 301.736 170.288Z" fill="#F3BA48"/>
</g>
</g>
<path id="plus" fill-rule="evenodd" clip-rule="evenodd" d="M419.15 179H410.85V195.6H394.25V203.9H410.85V220.5H419.15V203.9H435.75V195.6H419.15V179Z" fill="url(#paint3_linear_2797_134)"/>
</g>
<defs>
<linearGradient id="paint0_linear_2797_134" x1="413.965" y1="0" x2="413.965" y2="400" gradientUnits="userSpaceOnUse">
<stop stop-color="#FFF9EE"/>
<stop offset="1" stop-color="white"/>
</linearGradient>
<linearGradient id="paint1_linear_2797_134" x1="594.696" y1="221.693" x2="624.161" y2="258.213" gradientUnits="userSpaceOnUse">
<stop stop-color="white"/>
<stop offset="1" stop-color="white" stop-opacity="0"/>
</linearGradient>
<linearGradient id="paint2_linear_2797_134" x1="604.656" y1="169.818" x2="604.489" y2="213.705" gradientUnits="userSpaceOnUse">
<stop stop-color="white"/>
<stop offset="1" stop-color="white" stop-opacity="0"/>
</linearGradient>
<linearGradient id="paint3_linear_2797_134" x1="415" y1="179" x2="415" y2="220.5" gradientUnits="userSpaceOnUse">
<stop stop-color="#FFDD99"/>
<stop offset="1" stop-color="#FFD174"/>
</linearGradient>
</defs>
</svg>
