<svg width="828" height="400" viewBox="0 0 828 400" fill="none" xmlns="http://www.w3.org/2000/svg">
<g id="banner">
<g id="base">
<rect width="827.93" height="400" rx="4" fill="url(#paint0_linear_2797_134)"/>
<rect x="0.5" y="0.5" width="826.93" height="399" rx="3.5" stroke="black" stroke-opacity="0.05" vector-effect="non-scaling-stroke"/>
</g>
<g id="next">
<mask id="mask0_2797_134" style="mask-type:alpha" maskUnits="userSpaceOnUse" x="191" y="125" width="151" height="150">
<g id="Group">
<path id="Vector" d="M266.637 274.4C307.893 274.4 341.337 240.956 341.337 199.7C341.337 158.444 307.893 125 266.637 125C225.382 125 191.938 158.444 191.938 199.7C191.938 240.956 225.382 274.4 266.637 274.4Z" fill="black"/>
</g>
</mask>
<g mask="url(#mask0_2797_134)">
<g id="Group_2">
<path id="Vector_2" d="M266.637 274.4C307.893 274.4 341.337 240.956 341.337 199.7C341.337 158.444 307.893 125 266.637 125C225.382 125 191.938 158.444 191.938 199.7C191.938 240.956 225.382 274.4 266.637 274.4Z" fill="black"/>
<path id="Vector_3" d="M316.029 255.74L249.326 169.818H236.758V229.553H246.812V182.587L308.137 261.82C310.904 259.968 313.54 257.935 316.029 255.74Z" fill="url(#paint1_linear_2797_134)"/>
<path id="Vector_4" d="M297.348 169.818H287.388V229.578H297.348V169.818Z" fill="url(#paint2_linear_2797_134)"/>
</g>
</g>
</g>
<g id="seomatic">
<path id="gr_104_" d="M653.995 228.206C653.995 233.906 649.958 240.905 645.019 243.755L595.644 272.262C590.707 275.113 582.629 275.113 577.691 272.262L528.314 243.755C523.376 240.905 519.338 233.908 519.338 228.206V171.193C519.338 165.492 523.377 158.494 528.314 155.644L577.691 127.138C582.629 124.287 590.708 124.287 595.644 127.138L645.019 155.645C649.959 158.494 653.995 165.492 653.995 171.194V228.206Z" fill="#F3BA48"/>
<g id="Group_3">
<path id="Vector_5" d="M601.231 192.626C602.628 195.04 601.786 198.187 599.347 199.596C596.93 200.992 593.783 200.146 592.387 197.733C590.981 195.294 591.811 192.124 594.225 190.729C596.663 189.321 599.822 190.187 601.231 192.626Z" fill="white"/>
<path id="Vector_6" d="M616.939 188.113C615.092 189.18 612.72 188.544 611.658 186.698C610.59 184.851 611.223 182.479 613.07 181.412L629.936 171.674C631.787 170.61 634.156 171.245 635.222 173.092C636.289 174.939 635.656 177.309 633.805 178.375L616.939 188.113Z" fill="white"/>
<path id="Vector_7" d="M603.812 167.504L553.907 196.317C549.821 198.675 548.425 203.895 550.78 207.98L562.786 228.774C565.145 232.857 570.364 234.256 574.45 231.899L624.354 203.086C628.436 200.727 629.837 195.506 627.477 191.423L615.471 170.63C613.117 166.546 607.893 165.147 603.812 167.504ZM573.627 219.178C570.743 220.841 568.459 220.566 567.654 220.349C567.304 220.256 567.183 220.206 567.183 219.79L567.162 217.351C567.175 216.96 567.621 216.762 567.842 216.783C567.954 216.777 570.231 217.031 571.694 216.184C572.582 215.672 572.902 214.746 572.452 213.971C571.915 213.042 570.731 212.78 568.876 213.05C566.537 213.398 563.286 213.294 561.748 210.634C560.481 208.439 560.91 205.239 564.324 203.266C566.629 201.934 569.081 202.086 570.027 202.191C570.381 202.191 570.569 202.616 570.569 202.823L570.423 205.184C570.41 205.518 570.127 205.946 569.839 205.907C569.572 205.91 567.25 205.625 565.9 206.406C565.099 206.868 564.812 207.745 565.153 208.343C565.628 209.165 566.65 209.399 568.813 209.099C570.939 208.787 574.47 208.552 576.208 211.568C577.529 213.85 576.883 217.295 573.627 219.178ZM584.141 195.905C584.27 196.126 584.203 196.428 583.962 196.567L577.821 200.112L579.41 202.863L584.462 199.944C584.682 199.817 584.999 199.903 585.129 200.124L586.521 202.537C586.662 202.783 586.567 203.076 586.345 203.203L581.289 206.122L583.019 209.115L589.16 205.569C589.402 205.428 589.694 205.526 589.822 205.747L591.219 208.165C591.344 208.386 591.281 208.688 591.039 208.827L581.86 214.126C581.618 214.267 581.323 214.169 581.198 213.947L572.723 199.272C572.598 199.051 572.66 198.747 572.902 198.607L582.081 193.309C582.322 193.167 582.619 193.265 582.744 193.486L584.141 195.905ZM601.394 203.146C596.959 205.705 591.401 204.215 588.842 199.783C586.282 195.35 587.741 189.745 592.177 187.185C596.612 184.626 602.22 186.147 604.779 190.581C607.339 195.014 605.825 200.586 601.394 203.146ZM617.63 190.64C614.566 192.408 610.652 191.361 608.885 188.297C607.113 185.233 608.164 181.319 611.228 179.552C614.287 177.784 618.205 178.831 619.974 181.895C621.741 184.958 620.691 188.872 617.63 190.64Z" fill="white"/>
<path id="Vector_8" d="M630.737 173.059C631.824 172.432 633.209 172.805 633.838 173.889C634.463 174.972 634.092 176.36 633.003 176.986L616.137 186.724C615.053 187.349 613.669 186.978 613.039 185.895C612.414 184.811 612.784 183.422 613.869 182.797L630.737 173.059ZM629.136 170.288L612.271 180.025C609.661 181.532 608.76 184.882 610.269 187.496C611.778 190.107 615.13 191.005 617.739 189.496L634.605 179.758C637.219 178.249 638.115 174.9 636.61 172.288C635.101 169.674 631.75 168.779 629.136 170.288Z" fill="#F3BA48"/>
</g>
</g>
<path id="plus" fill-rule="evenodd" clip-rule="evenodd" d="M419.15 179H410.85V195.6H394.25V203.9H410.85V220.5H419.15V203.9H435.75V195.6H419.15V179Z" fill="url(#paint3_linear_2797_134)"/>
</g>
<defs>
<linearGradient id="paint0_linear_2797_134" x1="413.965" y1="0" x2="413.965" y2="400" gradientUnits="userSpaceOnUse">
<stop stop-color="#FFF9EE"/>
<stop offset="1" stop-color="white"/>
</linearGradient>
<linearGradient id="paint1_linear_2797_134" x1="282.408" y1="221.693" x2="311.873" y2="258.213" gradientUnits="userSpaceOnUse">
<stop stop-color="white"/>
<stop offset="1" stop-color="white" stop-opacity="0"/>
</linearGradient>
<linearGradient id="paint2_linear_2797_134" x1="292.368" y1="169.818" x2="292.201" y2="213.705" gradientUnits="userSpaceOnUse">
<stop stop-color="white"/>
<stop offset="1" stop-color="white" stop-opacity="0"/>
</linearGradient>
<linearGradient id="paint3_linear_2797_134" x1="415" y1="179" x2="415" y2="220.5" gradientUnits="userSpaceOnUse">
<stop stop-color="#FFDD99"/>
<stop offset="1" stop-color="#FFD174"/>
</linearGradient>
</defs>
</svg>
