<svg width="830" height="467" viewBox="0 0 830 467" fill="none" xmlns="http://www.w3.org/2000/svg">
<g id="banner">
<g id="base">
<rect width="830" height="466.875" rx="8" fill="url(#paint0_linear_2797_134)"/>
<rect x="0.5" y="0.5" width="829" height="465.875" rx="7.5" stroke="black" stroke-opacity="0.05" vector-effect="non-scaling-stroke"/>
</g>
<g id="next">
<mask id="mask0_2797_134" style="mask-type:alpha" maskUnits="userSpaceOnUse" x="504" y="157" width="150" height="151">
<g id="Group">
<path id="Vector" d="M578.926 307.101C620.181 307.101 653.626 273.657 653.626 232.401C653.626 191.146 620.181 157.701 578.926 157.701C537.67 157.701 504.226 191.146 504.226 232.401C504.226 273.657 537.67 307.101 578.926 307.101Z" fill="black"/>
</g>
</mask>
<g mask="url(#mask0_2797_134)">
<g id="Group_2">
<path id="Vector_2" d="M578.926 307.101C620.181 307.101 653.626 273.657 653.626 232.401C653.626 191.146 620.181 157.701 578.926 157.701C537.67 157.701 504.226 191.146 504.226 232.401C504.226 273.657 537.67 307.101 578.926 307.101Z" fill="black"/>
<path id="Vector_3" d="M628.318 288.441L561.614 202.52H549.046V262.255H559.1V215.288L620.425 294.521C623.192 292.669 625.828 290.636 628.318 288.441Z" fill="url(#paint1_linear_2797_134)"/>
<path id="Vector_4" d="M609.636 202.52H599.676V262.28H609.636V202.52Z" fill="url(#paint2_linear_2797_134)"/>
</g>
</g>
</g>
<g id="seomatic">
<path id="gr_104_" d="M326.595 260.907C326.595 266.608 322.558 273.607 317.618 276.457L268.244 304.963C263.307 307.814 255.228 307.814 250.291 304.963L200.914 276.457C195.976 273.607 191.938 266.609 191.938 260.907V203.894C191.938 198.194 195.977 191.195 200.914 188.345L250.29 159.84C255.228 156.988 263.307 156.988 268.244 159.84L317.618 188.346C322.558 191.195 326.595 198.194 326.595 203.895V260.907Z" fill="#F3BA48"/>
<g id="Group_3">
<path id="Vector_5" d="M273.831 225.327C275.228 227.741 274.385 230.888 271.947 232.297C269.53 233.694 266.382 232.847 264.987 230.434C263.581 227.995 264.411 224.825 266.824 223.43C269.263 222.022 272.422 222.888 273.831 225.327Z" fill="white"/>
<path id="Vector_6" d="M289.539 220.814C287.691 221.881 285.319 221.245 284.257 219.399C283.189 217.552 283.822 215.18 285.669 214.113L302.536 204.376C304.387 203.311 306.755 203.947 307.822 205.793C308.889 207.64 308.255 210.01 306.405 211.077L289.539 220.814Z" fill="white"/>
<path id="Vector_7" d="M276.411 200.205L226.506 229.018C222.421 231.376 221.024 236.596 223.379 240.682L235.385 261.475C237.745 265.558 242.964 266.957 247.049 264.601L296.954 235.787C301.035 233.428 302.437 228.207 300.077 224.124L288.071 203.332C285.716 199.247 280.493 197.849 276.411 200.205ZM246.227 251.879C243.343 253.542 241.058 253.267 240.254 253.05C239.904 252.957 239.783 252.907 239.783 252.491L239.762 250.053C239.775 249.661 240.221 249.463 240.442 249.484C240.554 249.478 242.83 249.732 244.293 248.885C245.181 248.373 245.502 247.448 245.052 246.673C244.515 245.743 243.33 245.481 241.476 245.751C239.137 246.099 235.886 245.995 234.347 243.336C233.08 241.141 233.51 237.94 236.924 235.967C239.229 234.635 241.68 234.787 242.626 234.892C242.981 234.892 243.168 235.317 243.168 235.524L243.023 237.885C243.01 238.219 242.726 238.647 242.439 238.609C242.172 238.611 239.85 238.326 238.499 239.107C237.699 239.569 237.411 240.446 237.753 241.044C238.228 241.866 239.249 242.1 241.413 241.8C243.539 241.488 247.07 241.254 248.808 244.27C250.129 246.551 249.483 249.996 246.227 251.879ZM256.741 228.606C256.87 228.827 256.803 229.129 256.561 229.269L250.421 232.814L252.009 235.564L257.061 232.646C257.282 232.518 257.599 232.604 257.728 232.825L259.12 235.238C259.262 235.484 259.166 235.777 258.945 235.904L253.889 238.823L255.619 241.816L261.76 238.27C262.001 238.129 262.293 238.227 262.421 238.448L263.819 240.866C263.943 241.087 263.881 241.389 263.639 241.528L254.46 246.827C254.218 246.968 253.922 246.87 253.797 246.649L245.322 231.973C245.197 231.752 245.26 231.448 245.502 231.308L254.681 226.01C254.922 225.868 255.218 225.966 255.343 226.187L256.741 228.606ZM273.994 235.847C269.558 238.406 264.001 236.916 261.442 232.484C258.882 228.051 260.34 222.446 264.776 219.886C269.212 217.327 274.819 218.848 277.379 223.282C279.938 227.715 278.425 233.287 273.994 235.847ZM290.23 223.341C287.166 225.109 283.252 224.062 281.485 220.998C279.712 217.935 280.764 214.02 283.827 212.253C286.887 210.485 290.805 211.532 292.573 214.596C294.34 217.66 293.29 221.573 290.23 223.341Z" fill="white"/>
<path id="Vector_8" d="M303.336 205.76C304.424 205.133 305.809 205.506 306.437 206.59C307.063 207.673 306.692 209.062 305.603 209.687L288.736 219.425C287.653 220.05 286.269 219.679 285.638 218.596C285.014 217.512 285.384 216.123 286.468 215.498L303.336 205.76ZM301.736 202.989L284.87 212.727C282.261 214.233 281.359 217.583 282.868 220.197C284.377 222.808 287.73 223.706 290.338 222.197L307.205 212.46C309.819 210.951 310.714 207.601 309.209 204.99C307.701 202.376 304.349 201.48 301.736 202.989Z" fill="#F3BA48"/>
</g>
</g>
<path id="plus" fill-rule="evenodd" clip-rule="evenodd" d="M419.15 211.65H410.85V228.25H394.25V236.55H410.85V253.15H419.15V236.55H435.75V228.25H419.15V211.65Z" fill="url(#paint3_linear_2797_134)"/>
</g>
<defs>
<linearGradient id="paint0_linear_2797_134" x1="415" y1="0" x2="415" y2="466.875" gradientUnits="userSpaceOnUse">
<stop stop-color="#FFF9EE"/>
<stop offset="1" stop-color="white"/>
</linearGradient>
<linearGradient id="paint1_linear_2797_134" x1="594.696" y1="254.395" x2="624.161" y2="290.915" gradientUnits="userSpaceOnUse">
<stop stop-color="white"/>
<stop offset="1" stop-color="white" stop-opacity="0"/>
</linearGradient>
<linearGradient id="paint2_linear_2797_134" x1="604.656" y1="202.52" x2="604.489" y2="246.406" gradientUnits="userSpaceOnUse">
<stop stop-color="white"/>
<stop offset="1" stop-color="white" stop-opacity="0"/>
</linearGradient>
<linearGradient id="paint3_linear_2797_134" x1="415" y1="211.65" x2="415" y2="253.15" gradientUnits="userSpaceOnUse">
<stop stop-color="#FFDD99"/>
<stop offset="1" stop-color="#FFD174"/>
</linearGradient>
</defs>
</svg>
